Coordinates
version=1
nRows=50
nColumns=16
inDegrees=yes
endheader
time	elbow_flexion_r	elbow_flexion_l	shoulder_elv_r	shoulder_elv_l	elv_angle_r	elv_angle_l	shoulder_rot_r	shoulder_rot_l	pro_sup_r	pro_sup_l	hip_flexion_r	hip_flexion_l	knee_angle_r	knee_angle_l	lumbar_extension
0.000000	20.000000	20.000000	6.000000	6.000000	0.000000	0.000000	14.000000	14.000000	80.000000	80.000000	0.000000	0.000000	0.000000	0.000000	0.000000
0.040816	22.142857	22.142857	6.000000	6.000000	0.000000	0.000000	14.000000	14.000000	80.000000	80.000000	0.000000	0.000000	0.000000	0.000000	0.000000
0.081633	24.285714	24.285714	6.000000	6.000000	0.000000	0.000000	14.000000	14.000000	80.000000	80.000000	0.000000	0.000000	0.000000	0.000000	0.000000
0.122449	26.428571	26.428571	6.000000	6.000000	0.000000	0.000000	14.000000	14.000000	80.000000	80.000000	0.000000	0.000000	0.000000	0.000000	0.000000
0.163265	28.571429	28.571429	6.000000	6.000000	0.000000	0.000000	14.000000	14.000000	80.000000	80.000000	0.000000	0.000000	0.000000	0.000000	0.000000
0.204082	30.714286	30.714286	6.000000	6.000000	0.000000	0.000000	14.000000	14.000000	80.000000	80.000000	0.000000	0.000000	0.000000	0.000000	0.000000
0.244898	32.857143	32.857143	6.000000	6.000000	0.000000	0.000000	14.000000	14.000000	80.000000	80.000000	0.000000	0.000000	0.000000	0.000000	0.000000
0.285714	35.000000	35.000000	6.000000	6.000000	0.000000	0.000000	14.000000	14.000000	80.000000	80.000000	0.000000	0.000000	0.000000	0.000000	0.000000
0.326531	37.142857	37.142857	6.000000	6.000000	0.000000	0.000000	14.000000	14.000000	80.000000	80.000000	0.000000	0.000000	0.000000	0.000000	0.000000
0.367347	39.285714	39.285714	6.000000	6.000000	0.000000	0.000000	14.000000	14.000000	80.000000	80.000000	0.000000	0.000000	0.000000	0.000000	0.000000
0.408163	41.428571	41.428571	6.000000	6.000000	0.000000	0.000000	14.000000	14.000000	80.000000	80.000000	0.000000	0.000000	0.000000	0.000000	0.000000
0.448980	43.571429	43.571429	6.000000	6.000000	0.000000	0.000000	14.000000	14.000000	80.000000	80.000000	0.000000	0.000000	0.000000	0.000000	0.000000
0.489796	45.714286	45.714286	6.000000	6.000000	0.000000	0.000000	14.000000	14.000000	80.000000	80.000000	0.000000	0.000000	0.000000	0.000000	0.000000
0.530612	47.857143	47.857143	6.000000	6.000000	0.000000	0.000000	14.000000	14.000000	80.000000	80.000000	0.000000	0.000000	0.000000	0.000000	0.000000
0.571429	50.000000	50.000000	6.000000	6.000000	0.000000	0.000000	14.000000	14.000000	80.000000	80.000000	0.000000	0.000000	0.000000	0.000000	0.000000
0.612245	52.142857	52.142857	6.000000	6.000000	0.000000	0.000000	14.000000	14.000000	80.000000	80.000000	0.000000	0.000000	0.000000	0.000000	0.000000
0.653061	54.285714	54.285714	6.000000	6.000000	0.000000	0.000000	14.000000	14.000000	80.000000	80.000000	0.000000	0.000000	0.000000	0.000000	0.000000
0.693878	56.428571	56.428571	6.000000	6.000000	0.000000	0.000000	14.000000	14.000000	80.000000	80.000000	0.000000	0.000000	0.000000	0.000000	0.000000
0.734694	58.571429	58.571429	6.000000	6.000000	0.000000	0.000000	14.000000	14.000000	80.000000	80.000000	0.000000	0.000000	0.000000	0.000000	0.000000
0.775510	60.714286	60.714286	6.000000	6.000000	0.000000	0.000000	14.000000	14.000000	80.000000	80.000000	0.000000	0.000000	0.000000	0.000000	0.000000
0.816327	62.857143	62.857143	6.000000	6.000000	0.000000	0.000000	14.000000	14.000000	80.000000	80.000000	0.000000	0.000000	0.000000	0.000000	0.000000
0.857143	65.000000	65.000000	6.000000	6.000000	0.000000	0.000000	14.000000	14.000000	80.000000	80.000000	0.000000	0.000000	0.000000	0.000000	0.000000
0.897959	67.142857	67.142857	6.000000	6.000000	0.000000	0.000000	14.000000	14.000000	80.000000	80.000000	0.000000	0.000000	0.000000	0.000000	0.000000
0.938776	69.285714	69.285714	6.000000	6.000000	0.000000	0.000000	14.000000	14.000000	80.000000	80.000000	0.000000	0.000000	0.000000	0.000000	0.000000
0.979592	71.428571	71.428571	6.000000	6.000000	0.000000	0.000000	14.000000	14.000000	80.000000	80.000000	0.000000	0.000000	0.000000	0.000000	0.000000
1.020408	73.571429	73.571429	6.000000	6.000000	0.000000	0.000000	14.000000	14.000000	80.000000	80.000000	0.000000	0.000000	0.000000	0.000000	0.000000
1.061224	75.714286	75.714286	6.000000	6.000000	0.000000	0.000000	14.000000	14.000000	80.000000	80.000000	0.000000	0.000000	0.000000	0.000000	0.000000
1.102041	77.857143	77.857143	6.000000	6.000000	0.000000	0.000000	14.000000	14.000000	80.000000	80.000000	0.000000	0.000000	0.000000	0.000000	0.000000
1.142857	80.000000	80.000000	6.000000	6.000000	0.000000	0.000000	14.000000	14.000000	80.000000	80.000000	0.000000	0.000000	0.000000	0.000000	0.000000
1.183673	82.142857	82.142857	6.000000	6.000000	0.000000	0.000000	14.000000	14.000000	80.000000	80.000000	0.000000	0.000000	0.000000	0.000000	0.000000
1.224490	84.285714	84.285714	6.000000	6.000000	0.000000	0.000000	14.000000	14.000000	80.000000	80.000000	0.000000	0.000000	0.000000	0.000000	0.000000
1.265306	86.428571	86.428571	6.000000	6.000000	0.000000	0.000000	14.000000	14.000000	80.000000	80.000000	0.000000	0.000000	0.000000	0.000000	0.000000
1.306122	88.571429	88.571429	6.000000	6.000000	0.000000	0.000000	14.000000	14.000000	80.000000	80.000000	0.000000	0.000000	0.000000	0.000000	0.000000
1.346939	90.714286	90.714286	6.000000	6.000000	0.000000	0.000000	14.000000	14.000000	80.000000	80.000000	0.000000	0.000000	0.000000	0.000000	0.000000
1.387755	92.857143	92.857143	6.000000	6.000000	0.000000	0.000000	14.000000	14.000000	80.000000	80.000000	0.000000	0.000000	0.000000	0.000000	0.000000
1.428571	95.000000	95.000000	6.000000	6.000000	0.000000	0.000000	14.000000	14.000000	80.000000	80.000000	0.000000	0.000000	0.000000	0.000000	0.000000
1.469388	97.142857	97.142857	6.000000	6.000000	0.000000	0.000000	14.000000	14.000000	80.000000	80.000000	0.000000	0.000000	0.000000	0.000000	0.000000
1.510204	99.285714	99.285714	6.000000	6.000000	0.000000	0.000000	14.000000	14.000000	80.000000	80.000000	0.000000	0.000000	0.000000	0.000000	0.000000
1.551020	101.428571	101.428571	6.000000	6.000000	0.000000	0.000000	14.000000	14.000000	80.000000	80.000000	0.000000	0.000000	0.000000	0.000000	0.000000
1.591837	103.571429	103.571429	6.000000	6.000000	0.000000	0.000000	14.000000	14.000000	80.000000	80.000000	0.000000	0.000000	0.000000	0.000000	0.000000
1.632653	105.714286	105.714286	6.000000	6.000000	0.000000	0.000000	14.000000	14.000000	80.000000	80.000000	0.000000	0.000000	0.000000	0.000000	0.000000
1.673469	107.857143	107.857143	6.000000	6.000000	0.000000	0.000000	14.000000	14.000000	80.000000	80.000000	0.000000	0.000000	0.000000	0.000000	0.000000
1.714286	110.000000	110.000000	6.000000	6.000000	0.000000	0.000000	14.000000	14.000000	80.000000	80.000000	0.000000	0.000000	0.000000	0.000000	0.000000
1.755102	112.142857	112.142857	6.000000	6.000000	0.000000	0.000000	14.000000	14.000000	80.000000	80.000000	0.000000	0.000000	0.000000	0.000000	0.000000
1.795918	114.285714	114.285714	6.000000	6.000000	0.000000	0.000000	14.000000	14.000000	80.000000	80.000000	0.000000	0.000000	0.000000	0.000000	0.000000
1.836735	116.428571	116.428571	6.000000	6.000000	0.000000	0.000000	14.000000	14.000000	80.000000	80.000000	0.000000	0.000000	0.000000	0.000000	0.000000
1.877551	118.571429	118.571429	6.000000	6.000000	0.000000	0.000000	14.000000	14.000000	80.000000	80.000000	0.000000	0.000000	0.000000	0.000000	0.000000
1.918367	120.714286	120.714286	6.000000	6.000000	0.000000	0.000000	14.000000	14.000000	80.000000	80.000000	0.000000	0.000000	0.000000	0.000000	0.000000
1.959184	122.857143	122.857143	6.000000	6.000000	0.000000	0.000000	14.000000	14.000000	80.000000	80.000000	0.000000	0.000000	0.000000	0.000000	0.000000
2.000000	125.000000	125.000000	6.000000	6.000000	0.000000	0.000000	14.000000	14.000000	80.000000	80.000000	0.000000	0.000000	0.000000	0.000000	0.000000
